<?xml version="1.0" encoding="UTF-8" standalone="no"?>
<!DOCTYPE svg PUBLIC "-//W3C//DTD SVG 1.1//EN"
 "http://www.w3.org/Graphics/SVG/1.1/DTD/svg11.dtd">
<!-- Generated by graphviz version 14.1.5 (0)
 -->
<!-- Title: G Pages: 1 -->
<svg width="578pt" height="183pt"
 viewBox="0.00 0.00 578.00 183.00" xmlns="http://www.w3.org/2000/svg" xmlns:xlink="http://www.w3.org/1999/xlink">
<g id="graph0" class="graph" transform="scale(1 1) rotate(0) translate(11.52 171.82)">
<title>G</title>
<!-- id -->
<g id="node1" class="node">
<title>id</title>
<path fill="#eff6ff" stroke="#2563eb" stroke-width="2" d="M127.17,-160.3C127.17,-160.3 12,-160.3 12,-160.3 6,-160.3 0,-154.3 0,-148.3 0,-148.3 0,-118.9 0,-118.9 0,-112.9 6,-106.9 12,-106.9 12,-106.9 127.17,-106.9 127.17,-106.9 133.17,-106.9 139.17,-112.9 139.17,-118.9 139.17,-118.9 139.17,-148.3 139.17,-148.3 139.17,-154.3 133.17,-160.3 127.17,-160.3"/>
<text xml:space="preserve" text-anchor="middle" x="69.58" y="-140.75" font-family="Noto Sans CJK SC" font-size="13.00" fill="#2563eb">强身份</text>
<text xml:space="preserve" text-anchor="middle" x="69.58" y="-121.25" font-family="Noto Sans CJK SC" font-size="13.00" fill="#2563eb">非人身份 / 短期凭证</text>
</g>
<!-- perm -->
<g id="node2" class="node">
<title>perm</title>
<path fill="#f0f9ff" stroke="#0ea5e9" stroke-width="2" d="M338.17,-160.3C338.17,-160.3 223,-160.3 223,-160.3 217,-160.3 211,-154.3 211,-148.3 211,-148.3 211,-118.9 211,-118.9 211,-112.9 217,-106.9 223,-106.9 223,-106.9 338.17,-106.9 338.17,-106.9 344.17,-106.9 350.17,-112.9 350.17,-118.9 350.17,-118.9 350.17,-148.3 350.17,-148.3 350.17,-154.3 344.17,-160.3 338.17,-160.3"/>
<text xml:space="preserve" text-anchor="middle" x="280.58" y="-140.75" font-family="Noto Sans CJK SC" font-size="13.00" fill="#0369a1">最小权限</text>
<text xml:space="preserve" text-anchor="middle" x="280.58" y="-121.25" font-family="Noto Sans CJK SC" font-size="13.00" fill="#0369a1">按任务授权 / 可撤销</text>
</g>
<!-- id&#45;&gt;perm -->
<g id="edge1" class="edge">
<title>id&#45;&gt;perm</title>
<path fill="none" stroke="#64748b" stroke-width="2" d="M140.14,-134C140.14,-134 199.07,-134 199.07,-134"/>
<polygon fill="#64748b" stroke="#64748b" stroke-width="2" points="199.07,-136.8 207.07,-134 199.07,-131.2 199.07,-136.8"/>
</g>
<!-- run -->
<g id="node3" class="node">
<title>run</title>
<path fill="#fffbeb" stroke="#f59e0b" stroke-width="2" d="M543.18,-160.3C543.18,-160.3 433.98,-160.3 433.98,-160.3 427.98,-160.3 421.98,-154.3 421.98,-148.3 421.98,-148.3 421.98,-118.9 421.98,-118.9 421.98,-112.9 427.98,-106.9 433.98,-106.9 433.98,-106.9 543.18,-106.9 543.18,-106.9 549.18,-106.9 555.18,-112.9 555.18,-118.9 555.18,-118.9 555.18,-148.3 555.18,-148.3 555.18,-154.3 549.18,-160.3 543.18,-160.3"/>
<text xml:space="preserve" text-anchor="middle" x="488.58" y="-140.75" font-family="Noto Sans CJK SC" font-size="13.00" fill="#b45309">运行时治理</text>
<text xml:space="preserve" text-anchor="middle" x="488.58" y="-121.25" font-family="Noto Sans CJK SC" font-size="13.00" fill="#b45309">观测 / 告警 / 阻断</text>
</g>
<!-- perm&#45;&gt;run -->
<g id="edge2" class="edge">
<title>perm&#45;&gt;run</title>
<path fill="none" stroke="#64748b" stroke-width="2" d="M351,-143C351,-143 410.03,-143 410.03,-143"/>
<polygon fill="#64748b" stroke="#64748b" stroke-width="2" points="410.03,-145.8 418.03,-143 410.03,-140.2 410.03,-145.8"/>
</g>
<!-- audit -->
<g id="node4" class="node">
<title>audit</title>
<path fill="#f5f3ff" stroke="#7c3aed" stroke-width="2" d="M275.42,-53.4C275.42,-53.4 161.75,-53.4 161.75,-53.4 155.75,-53.4 149.75,-47.4 149.75,-41.4 149.75,-41.4 149.75,-12 149.75,-12 149.75,-6 155.75,0 161.75,0 161.75,0 275.42,0 275.42,0 281.42,0 287.42,-6 287.42,-12 287.42,-12 287.42,-41.4 287.42,-41.4 287.42,-47.4 281.42,-53.4 275.42,-53.4"/>
<text xml:space="preserve" text-anchor="middle" x="218.58" y="-33.85" font-family="Noto Sans CJK SC" font-size="13.00" fill="#7c3aed">审计复盘</text>
<text xml:space="preserve" text-anchor="middle" x="218.58" y="-14.35" font-family="Noto Sans CJK SC" font-size="13.00" fill="#7c3aed">回放 / 证据 / 责任链</text>
</g>
<!-- run&#45;&gt;audit -->
<g id="edge3" class="edge">
<title>run&#45;&gt;audit</title>
<path fill="none" stroke="#64748b" stroke-width="2" d="M421.19,-125C387.82,-125 354.58,-125 354.58,-125 354.58,-125 354.58,-36 354.58,-36 354.58,-36 299.2,-36 299.2,-36"/>
<polygon fill="#64748b" stroke="#64748b" stroke-width="2" points="299.2,-33.2 291.2,-36 299.2,-38.8 299.2,-33.2"/>
<text xml:space="preserve" text-anchor="middle" x="420.58" y="-78.35" font-family="Noto Sans CJK SC" font-size="9.00" fill="#475569">反馈改进</text>
</g>
<!-- eval -->
<g id="node5" class="node">
<title>eval</title>
<path fill="#ecfdf5" stroke="#16a34a" stroke-width="2" d="M480.19,-53.4C480.19,-53.4 370.98,-53.4 370.98,-53.4 364.98,-53.4 358.98,-47.4 358.98,-41.4 358.98,-41.4 358.98,-12 358.98,-12 358.98,-6 364.98,0 370.98,0 370.98,0 480.19,0 480.19,0 486.19,0 492.19,-6 492.19,-12 492.19,-12 492.19,-41.4 492.19,-41.4 492.19,-47.4 486.19,-53.4 480.19,-53.4"/>
<text xml:space="preserve" text-anchor="middle" x="425.58" y="-33.85" font-family="Noto Sans CJK SC" font-size="13.00" fill="#16a34a">持续评估</text>
<text xml:space="preserve" text-anchor="middle" x="425.58" y="-14.35" font-family="Noto Sans CJK SC" font-size="13.00" fill="#16a34a">红队 / 基准 / 合规</text>
</g>
<!-- audit&#45;&gt;eval -->
<g id="edge4" class="edge">
<title>audit&#45;&gt;eval</title>
<path fill="none" stroke="#64748b" stroke-width="2" d="M288.38,-18C288.38,-18 347.17,-18 347.17,-18"/>
<polygon fill="#64748b" stroke="#64748b" stroke-width="2" points="347.17,-20.8 355.17,-18 347.17,-15.2 347.17,-20.8"/>
</g>
<!-- eval&#45;&gt;id -->
<g id="edge5" class="edge">
<title>eval&#45;&gt;id</title>
<path fill="none" stroke="#64748b" stroke-width="2" d="M390.48,-54.29C390.48,-67.29 390.48,-80 390.48,-80 390.48,-80 69.58,-80 69.58,-80 69.58,-80 69.58,-95.14 69.58,-95.14"/>
<polygon fill="#64748b" stroke="#64748b" stroke-width="2" points="66.79,-95.14 69.59,-103.14 72.39,-95.14 66.79,-95.14"/>
<text xml:space="preserve" text-anchor="middle" x="258.58" y="-78.35" font-family="Noto Sans CJK SC" font-size="9.00" fill="#475569">反馈改进</text>
</g>
</g>
</svg>
