<?xml version="1.0" encoding="UTF-8" standalone="no"?>
<!DOCTYPE svg PUBLIC "-//W3C//DTD SVG 1.1//EN"
 "http://www.w3.org/Graphics/SVG/1.1/DTD/svg11.dtd">
<!-- Generated by graphviz version 14.1.5 (0)
 -->
<!-- Title: G Pages: 1 -->
<svg width="455pt" height="435pt"
 viewBox="0.00 0.00 455.00 435.00" xmlns="http://www.w3.org/2000/svg" xmlns:xlink="http://www.w3.org/1999/xlink">
<g id="graph0" class="graph" transform="scale(1 1) rotate(0) translate(11.52 423.12)">
<title>G</title>
<!-- agent -->
<g id="node1" class="node">
<title>agent</title>
<path fill="#eff6ff" stroke="#2563eb" stroke-width="2" d="M295.17,-411.6C295.17,-411.6 141.75,-411.6 141.75,-411.6 135.75,-411.6 129.75,-405.6 129.75,-399.6 129.75,-399.6 129.75,-350.7 129.75,-350.7 129.75,-344.7 135.75,-338.7 141.75,-338.7 141.75,-338.7 295.17,-338.7 295.17,-338.7 301.17,-338.7 307.17,-344.7 307.17,-350.7 307.17,-350.7 307.17,-399.6 307.17,-399.6 307.17,-405.6 301.17,-411.6 295.17,-411.6"/>
<text xml:space="preserve" text-anchor="middle" x="218.46" y="-392.05" font-family="Noto Sans CJK SC" font-size="13.00" fill="#2563eb">Agent / CLI</text>
<text xml:space="preserve" text-anchor="middle" x="218.46" y="-372.55" font-family="Noto Sans CJK SC" font-size="13.00" fill="#2563eb">Claude、Codex、Gemini</text>
<text xml:space="preserve" text-anchor="middle" x="218.46" y="-353.05" font-family="Noto Sans CJK SC" font-size="13.00" fill="#2563eb">脚本与子进程</text>
</g>
<!-- sem -->
<g id="node2" class="node">
<title>sem</title>
<path fill="#f5f3ff" stroke="#7c3aed" stroke-width="2" d="M190.92,-298.7C190.92,-298.7 12,-298.7 12,-298.7 6,-298.7 0,-292.7 0,-286.7 0,-286.7 0,-237.8 0,-237.8 0,-231.8 6,-225.8 12,-225.8 12,-225.8 190.92,-225.8 190.92,-225.8 196.92,-225.8 202.92,-231.8 202.92,-237.8 202.92,-237.8 202.92,-286.7 202.92,-286.7 202.92,-292.7 196.92,-298.7 190.92,-298.7"/>
<text xml:space="preserve" text-anchor="middle" x="101.46" y="-279.15" font-family="Noto Sans CJK SC" font-size="13.00" fill="#7c3aed">语义声明层</text>
<text xml:space="preserve" text-anchor="middle" x="101.46" y="-259.65" font-family="Noto Sans CJK SC" font-size="13.00" fill="#7c3aed">hooks / wrapper / metadata</text>
<text xml:space="preserve" text-anchor="middle" x="101.46" y="-240.15" font-family="Noto Sans CJK SC" font-size="13.00" fill="#7c3aed">run、task、tool_call、intent</text>
</g>
<!-- agent&#45;&gt;sem -->
<g id="edge1" class="edge">
<title>agent&#45;&gt;sem</title>
<path fill="none" stroke="#64748b" stroke-width="2" d="M166.34,-337.87C166.34,-337.87 166.34,-310.52 166.34,-310.52"/>
<polygon fill="#64748b" stroke="#64748b" stroke-width="2" points="169.14,-310.52 166.34,-302.52 163.54,-310.52 169.14,-310.52"/>
</g>
<!-- fact -->
<g id="node3" class="node">
<title>fact</title>
<path fill="#dbeafe" stroke="#2563eb" stroke-width="2" d="M420.05,-298.7C420.05,-298.7 250.88,-298.7 250.88,-298.7 244.88,-298.7 238.88,-292.7 238.88,-286.7 238.88,-286.7 238.88,-237.8 238.88,-237.8 238.88,-231.8 244.88,-225.8 250.88,-225.8 250.88,-225.8 420.05,-225.8 420.05,-225.8 426.05,-225.8 432.05,-231.8 432.05,-237.8 432.05,-237.8 432.05,-286.7 432.05,-286.7 432.05,-292.7 426.05,-298.7 420.05,-298.7"/>
<text xml:space="preserve" text-anchor="middle" x="335.46" y="-279.15" font-family="Noto Sans CJK SC" font-size="13.00" fill="#2563eb">内核事实层</text>
<text xml:space="preserve" text-anchor="middle" x="335.46" y="-259.65" font-family="Noto Sans CJK SC" font-size="13.00" fill="#2563eb">eBPF tracepoints / uprobes</text>
<text xml:space="preserve" text-anchor="middle" x="335.46" y="-240.15" font-family="Noto Sans CJK SC" font-size="13.00" fill="#2563eb">file、net、process、TLS</text>
</g>
<!-- agent&#45;&gt;fact -->
<g id="edge2" class="edge">
<title>agent&#45;&gt;fact</title>
<path fill="none" stroke="#64748b" stroke-width="2" d="M273.02,-337.87C273.02,-337.87 273.02,-310.52 273.02,-310.52"/>
<polygon fill="#64748b" stroke="#64748b" stroke-width="2" points="275.82,-310.52 273.02,-302.52 270.22,-310.52 275.82,-310.52"/>
</g>
<!-- policy -->
<g id="node4" class="node">
<title>policy</title>
<path fill="#fffbeb" stroke="#f59e0b" stroke-width="2" d="M324.42,-185.8C324.42,-185.8 112.5,-185.8 112.5,-185.8 106.5,-185.8 100.5,-179.8 100.5,-173.8 100.5,-173.8 100.5,-124.9 100.5,-124.9 100.5,-118.9 106.5,-112.9 112.5,-112.9 112.5,-112.9 324.42,-112.9 324.42,-112.9 330.42,-112.9 336.42,-118.9 336.42,-124.9 336.42,-124.9 336.42,-173.8 336.42,-173.8 336.42,-179.8 330.42,-185.8 324.42,-185.8"/>
<text xml:space="preserve" text-anchor="middle" x="218.46" y="-166.25" font-family="Noto Sans CJK SC" font-size="13.00" fill="#b45309">关联与策略引擎</text>
<text xml:space="preserve" text-anchor="middle" x="218.46" y="-146.75" font-family="Noto Sans CJK SC" font-size="13.00" fill="#b45309">semantic mismatch</text>
<text xml:space="preserve" text-anchor="middle" x="218.46" y="-127.25" font-family="Noto Sans CJK SC" font-size="13.00" fill="#b45309">ALLOW / ALERT / BLOCK / REWRITE</text>
</g>
<!-- sem&#45;&gt;policy -->
<g id="edge3" class="edge">
<title>sem&#45;&gt;policy</title>
<path fill="none" stroke="#64748b" stroke-width="2" d="M151.71,-224.97C151.71,-224.97 151.71,-197.62 151.71,-197.62"/>
<polygon fill="#64748b" stroke="#64748b" stroke-width="2" points="154.51,-197.62 151.71,-189.62 148.91,-197.62 154.51,-197.62"/>
</g>
<!-- fact&#45;&gt;policy -->
<g id="edge4" class="edge">
<title>fact&#45;&gt;policy</title>
<path fill="none" stroke="#64748b" stroke-width="2" d="M287.65,-224.97C287.65,-224.97 287.65,-197.62 287.65,-197.62"/>
<polygon fill="#64748b" stroke="#64748b" stroke-width="2" points="290.45,-197.62 287.65,-189.62 284.85,-197.62 290.45,-197.62"/>
</g>
<!-- view -->
<g id="node5" class="node">
<title>view</title>
<path fill="#ecfdf5" stroke="#16a34a" stroke-width="2" d="M309.8,-72.9C309.8,-72.9 127.12,-72.9 127.12,-72.9 121.12,-72.9 115.13,-66.9 115.13,-60.9 115.13,-60.9 115.13,-12 115.13,-12 115.13,-6 121.13,0 127.13,0 127.13,0 309.8,0 309.8,0 315.8,0 321.8,-6 321.8,-12 321.8,-12 321.8,-60.9 321.8,-60.9 321.8,-66.9 315.8,-72.9 309.8,-72.9"/>
<text xml:space="preserve" text-anchor="middle" x="218.46" y="-53.35" font-family="Noto Sans CJK SC" font-size="13.00" fill="#16a34a">展示与复盘</text>
<text xml:space="preserve" text-anchor="middle" x="218.46" y="-33.85" font-family="Noto Sans CJK SC" font-size="13.00" fill="#16a34a">Dashboard / Execution Graph</text>
<text xml:space="preserve" text-anchor="middle" x="218.46" y="-14.35" font-family="Noto Sans CJK SC" font-size="13.00" fill="#16a34a">JSONL / OTLP / MCP</text>
</g>
<!-- policy&#45;&gt;view -->
<g id="edge5" class="edge">
<title>policy&#45;&gt;view</title>
<path fill="none" stroke="#64748b" stroke-width="2" d="M218.46,-112.07C218.46,-112.07 218.46,-84.72 218.46,-84.72"/>
<polygon fill="#64748b" stroke="#64748b" stroke-width="2" points="221.26,-84.72 218.46,-76.72 215.66,-84.72 221.26,-84.72"/>
</g>
</g>
</svg>
